<svg xmlns="http://www.w3.org/2000/svg" xmlns:xlink="http://www.w3.org/1999/xlink" width="82" height="82" viewBox="0 0 82 82">
    <defs>
        <filter id="a" width="185.7%" height="185.8%" x="-42.9%" y="-42.9%" filterUnits="objectBoundingBox">
            <feGaussianBlur in="SourceGraphic" stdDeviation="6.889"/>
        </filter>
        <ellipse id="c" cx="31" cy="30.968" rx="31" ry="30.968"/>
        <filter id="b" width="101.6%" height="103.2%" x="-.8%" y="-.8%" filterUnits="objectBoundingBox">
            <feOffset dy="1" in="SourceAlpha" result="shadowOffsetOuter1"/>
            <feColorMatrix in="shadowOffsetOuter1" values="0 0 0 0 0.134199502 0 0 0 0 0.134199502 0 0 0 0 0.134199502 0 0 0 0.724623033 0"/>
        </filter>
        <filter id="d" width="101.6%" height="103.2%" x="-.8%" y="-.8%" filterUnits="objectBoundingBox">
            <feOffset dy="1" in="SourceAlpha" result="shadowOffsetInner1"/>
            <feComposite in="shadowOffsetInner1" in2="SourceAlpha" k2="-1" k3="1" operator="arithmetic" result="shadowInnerInner1"/>
            <feColorMatrix in="shadowInnerInner1" values="0 0 0 0 1 0 0 0 0 1 0 0 0 0 1 0 0 0 0.416602928 0"/>
        </filter>
    </defs>
    <g fill="none" fill-rule="evenodd" transform="translate(10 1)">
        <ellipse cx="31" cy="39.914" fill="#2F3539" filter="url(#a)" rx="24.111" ry="24.086"/>
        <use fill="#000" filter="url(#b)" xlink:href="#c"/>
        <use fill="#2F3539" xlink:href="#c"/>
        <use fill="#000" filter="url(#d)" xlink:href="#c"/>
        <path fill="#FFF" fill-rule="nonzero" d="M33.754 33.765v6.137a2.765 2.765 0 1 1-5.53 0v-6.137h-6.127a2.808 2.808 0 0 1 0-5.616h6.127v-6.115a2.765 2.765 0 1 1 5.53 0v6.115h6.15a2.808 2.808 0 0 1 0 5.616h-6.15z"/>
    </g>
</svg>
